<?xml version="1.0" standalone="no"?>
<!DOCTYPE svg PUBLIC "-//W3C//DTD SVG 20010904//EN"
 "http://www.w3.org/TR/2001/REC-SVG-20010904/DTD/svg10.dtd">
<svg version="1.0" xmlns="http://www.w3.org/2000/svg"
 width="800.000000pt" height="855.000000pt" viewBox="0 0 800.000000 855.000000"
 preserveAspectRatio="xMidYMid meet">

<g transform="translate(0.000000,855.000000) scale(0.100000,-0.100000)"
fill="#000000" stroke="none">
<path d="M0 4275 l0 -4275 4000 0 4000 0 0 4275 0 4275 -4000 0 -4000 0 0
-4275z m4030 4181 c446 -53 845 -158 1254 -328 575 -239 1146 -640 1564 -1097
941 -1030 1300 -2390 991 -3754 -146 -645 -485 -1362 -864 -1827 -42 -52 -80
-96 -84 -97 -3 -1 -217 228 -476 508 -424 460 -541 584 -509 539 119 -163
1209 -1678 1220 -1695 12 -19 -33 -5 -304 96 -567 210 -1001 326 -1475 394
-332 47 -664 60 -797 30 -36 -8 -77 -18 -92 -21 -26 -6 -30 -3 -57 57 -16 35
-72 154 -126 264 l-97 200 -27 -91 c-47 -156 -124 -298 -217 -402 l-39 -43
-350 -99 c-376 -106 -720 -219 -1150 -378 -467 -172 -1086 -417 -1557 -616
-60 -24 -108 -41 -108 -36 0 7 530 2111 634 2517 l14 51 -62 -23 c-91 -35
-573 -220 -634 -244 l-53 -21 6 22 c42 143 214 672 276 845 200 563 447 1155
665 1598 103 210 171 311 320 479 l97 109 -79 74 c-288 267 -252 242 -1070
762 -422 268 -769 492 -771 498 -7 20 257 334 407 483 269 270 533 476 863
674 254 153 570 299 827 383 290 94 712 183 961 203 178 13 741 5 899 -14z"/>
<path d="M3377 8303 c-27 -2 -47 -8 -45 -12 2 -5 113 -281 248 -615 191 -474
246 -602 254 -588 6 9 146 265 313 567 l303 550 -75 17 c-104 24 -326 55 -475
67 -150 12 -456 20 -523 14z"/>
<path d="M3040 8283 c-141 -16 -427 -73 -595 -119 -160 -44 -344 -104 -350
-114 -3 -6 182 -237 412 -516 367 -444 419 -502 425 -482 4 13 59 289 123 613
64 325 118 598 121 608 5 15 -2 17 -48 15 -29 0 -69 -3 -88 -5z"/>
<path d="M4587 8138 c2 -24 26 -319 53 -657 28 -338 51 -616 53 -617 6 -6 922
877 922 888 0 7 -58 43 -130 80 -221 115 -496 226 -755 304 -63 19 -122 37
-131 40 -14 4 -16 -2 -12 -38z"/>
<path d="M1840 7946 c-120 -54 -176 -82 -320 -163 -116 -65 -480 -303 -480
-313 1 -7 1030 -763 1034 -759 1 2 -24 279 -55 614 -32 336 -58 622 -58 638
-1 15 -7 27 -13 26 -7 0 -56 -19 -108 -43z"/>
<path d="M5602 7043 c-79 -351 -143 -641 -143 -645 1 -9 1151 564 1151 573 0
4 -51 57 -112 119 -180 179 -402 359 -640 518 -59 40 -109 72 -110 72 -2 0
-68 -287 -146 -637z"/>
<path d="M825 7293 c-178 -154 -495 -486 -495 -519 0 -10 1079 -698 1085 -692
5 5 -478 1298 -485 1298 -3 0 -50 -39 -105 -87z"/>
<path d="M6346 6313 c-179 -312 -322 -569 -318 -571 8 -2 1162 187 1244 204
l28 5 -37 72 c-117 234 -325 548 -517 782 -32 39 -61 71 -66 73 -4 2 -154
-253 -334 -565z"/>
<path d="M3335 6314 c-369 -50 -728 -187 -1065 -409 -101 -66 -212 -148 -275
-204 l-39 -34 45 -41 c24 -22 91 -85 148 -138 l103 -97 -81 -77 c-102 -96
-243 -259 -309 -356 -147 -218 -507 -1042 -755 -1728 -92 -254 -200 -581 -194
-586 5 -5 358 132 367 143 4 4 31 78 59 163 118 351 263 682 337 768 47 56
157 109 259 126 45 8 203 16 365 20 157 3 370 9 474 13 l189 6 -24 -42 c-75
-133 -263 -262 -489 -336 -174 -56 -330 -82 -600 -101 l-95 -6 -383 -1517
c-211 -834 -383 -1519 -382 -1522 0 -4 116 40 258 98 1150 465 2120 800 2490
858 38 6 50 15 90 67 142 181 204 398 206 723 1 178 -19 395 -34 378 -5 -4
-23 -46 -41 -92 -111 -290 -312 -596 -470 -715 -101 -76 -38 -52 -839 -326
-726 -249 -1016 -349 -1059 -364 -24 -9 -46 -14 -48 -12 -4 3 535 2158 540
2163 1 0 45 6 97 12 562 68 983 327 1184 729 30 59 90 232 83 238 -9 10 -503
23 -832 24 -358 0 -590 -12 -690 -35 -33 -7 -61 -12 -63 -10 -7 7 75 208 129
316 260 520 676 859 1190 970 129 27 460 38 592 19 112 -16 288 -62 397 -104
659 -255 1053 -780 1145 -1530 13 -105 14 -158 5 -304 -10 -173 -29 -333 -50
-416 -23 -85 -52 -166 -61 -166 -6 0 -56 26 -112 59 -141 81 -317 174 -321
170 -2 -2 237 -332 531 -732 294 -400 533 -730 531 -733 -3 -2 -38 3 -79 11
-206 44 -493 79 -764 95 -99 6 -200 15 -225 21 -210 48 -381 140 -518 276 -30
30 -52 50 -50 45 1 -5 74 -159 161 -343 l158 -334 252 -1 c274 -1 430 -15 724
-64 311 -52 697 -147 1010 -248 l152 -49 -21 31 c-13 17 -261 364 -554 771
-292 408 -539 753 -549 768 -17 26 -16 30 18 165 43 166 63 266 82 426 41 348
25 593 -60 931 -183 728 -681 1275 -1362 1498 -392 128 -833 154 -1151 67 -89
-24 -90 -25 -61 -1 78 60 239 128 389 163 111 25 399 36 537 19 400 -50 791
-206 1101 -438 446 -336 760 -890 856 -1508 41 -264 45 -646 11 -970 -19 -182
-19 -189 5 -137 188 413 247 951 159 1439 -179 997 -972 1804 -1966 2002 -81
16 -197 35 -257 40 -145 14 -377 12 -501 -5z"/>
<path d="M6869 5414 c-475 -439 -485 -449 -455 -456 62 -13 1246 -171 1250
-167 6 6 -19 147 -50 289 -47 209 -157 550 -238 734 l-22 49 -485 -449z"/>
<path d="M7111 4370 c-310 -159 -565 -291 -567 -293 -4 -4 1105 -486 1137
-494 20 -6 28 63 38 297 10 245 -16 781 -38 780 -3 -1 -260 -131 -570 -290z"/>
<path d="M7049 3344 c-339 -56 -622 -103 -629 -106 -13 -4 911 -818 928 -818
24 0 151 328 220 572 53 182 106 418 100 441 -2 10 -134 -9 -619 -89z"/>
<path d="M6000 2555 c0 -3 192 -209 426 -457 235 -249 433 -460 441 -468 17
-19 20 -16 147 175 102 152 182 288 251 426 39 77 42 88 27 93 -9 3 -80 16
-157 30 -77 13 -362 65 -633 115 -535 99 -502 93 -502 86z"/>
</g>
</svg>
